<svg width="20" height="20" viewBox="0 0 20 20" fill="none" xmlns="http://www.w3.org/2000/svg">
<path d="M13.8484 0C13.8949 0 13.9415 0 13.9907 0C14.1048 1.41044 13.5665 2.46432 12.9122 3.22751C12.2702 3.98542 11.3911 4.7205 9.96924 4.60897C9.87439 3.21872 10.4136 2.24301 11.067 1.48158C11.673 0.771967 12.784 0.140517 13.8484 0Z" fill="black"/>
<path d="M18.1526 14.6805C18.1526 14.6946 18.1526 14.7069 18.1526 14.7201C17.753 15.9303 17.1831 16.9675 16.4875 17.93C15.8526 18.8038 15.0744 19.9798 13.6851 19.9798C12.4845 19.9798 11.6871 19.2078 10.4567 19.1868C9.15514 19.1657 8.43938 19.8323 7.24938 20C7.11325 20 6.97713 20 6.84363 20C5.96979 19.8735 5.26457 19.1815 4.7508 18.5579C3.23585 16.7154 2.06517 14.3354 1.84737 11.2897C1.84737 10.9911 1.84737 10.6934 1.84737 10.3948C1.93958 8.21499 2.99873 6.44272 4.40654 5.58381C5.14952 5.12712 6.17091 4.73807 7.30822 4.91196C7.79564 4.98749 8.2936 5.15435 8.73008 5.31946C9.14373 5.47842 9.66101 5.76033 10.1511 5.7454C10.483 5.73574 10.8132 5.56273 11.1479 5.44065C12.128 5.08673 13.0888 4.68098 14.3552 4.87156C15.8771 5.10166 16.9574 5.7779 17.6248 6.82124C16.3373 7.64063 15.3195 8.87542 15.4934 10.9841C15.6479 12.8995 16.7615 14.0201 18.1526 14.6805Z" fill="black"/>
</svg>
