<svg width="20" height="20" viewBox="0 0 20 20" fill="none" xmlns="http://www.w3.org/2000/svg">
<path d="M2.3125 8.6125C2.3125 5.2975 5.0005 2.6125 8.31625 2.6125H11.5907C14.9582 2.6125 17.6875 5.3425 17.6875 8.71C17.6875 10.93 16.4823 12.97 14.5405 14.0425L8.5 17.3875V14.62H8.44975C5.08225 14.695 2.3125 11.9875 2.3125 8.6125ZM8.31625 4.1125C5.8285 4.1125 3.8125 6.13 3.8125 8.6125C3.8125 11.14 5.89 13.1725 8.416 13.12L8.67925 13.1125H10V14.8375L13.8152 12.73C15.2785 11.92 16.1875 10.3825 16.1875 8.71C16.1875 6.1675 14.1295 4.1125 11.5907 4.1125H8.31625Z" fill="#71767B"/>
</svg>
