<svg width="28" height="28" viewBox="0 0 28 28" fill="none" xmlns="http://www.w3.org/2000/svg">
<path d="M12.4774 5.97737C8.88721 5.97737 5.97738 8.8872 5.97738 12.4774C5.97738 16.0675 8.88721 18.9774 12.4774 18.9774C14.2725 18.9774 15.8953 18.2515 17.074 17.074C18.2515 15.8953 18.9774 14.2725 18.9774 12.4774C18.9774 8.8872 16.0675 5.97737 12.4774 5.97737ZM2.72738 12.4774C2.72738 7.09212 7.09212 2.72737 12.4774 2.72737C17.8626 2.72737 22.2274 7.09212 22.2274 12.4774C22.2274 14.5823 21.559 16.5334 20.4247 18.127L25.2726 22.9738L22.9738 25.2726L18.127 20.4247C16.5334 21.559 14.5823 22.2274 12.4774 22.2274C7.09212 22.2274 2.72738 17.8626 2.72738 12.4774Z" fill="#E7E9EA"/>
</svg>
