<svg width="20" height="20" viewBox="0 0 20 20" fill="none" xmlns="http://www.w3.org/2000/svg">
<path d="M20 3.79724C19.2645 4.12314 18.4744 4.34335 17.6438 4.44288C18.4911 3.93553 19.1412 3.13045 19.4477 2.17212C18.655 2.64248 17.7768 2.98424 16.8422 3.16745C16.0935 2.37118 15.0277 1.87263 13.8474 1.87263C11.582 1.87263 9.74456 3.71004 9.74456 5.97728C9.74456 6.2979 9.78156 6.60971 9.85026 6.91095C6.43883 6.73919 3.41672 5.10526 1.39258 2.6231C1.04025 3.23087 0.837664 3.93553 0.837664 4.68599C0.837664 6.1094 1.56258 7.36634 2.66273 8.10183C1.98978 8.07981 1.35735 7.89572 0.804193 7.58831V7.64116C0.804193 9.62918 2.21792 11.2878 4.09583 11.6648C3.75055 11.7581 3.38853 11.8075 3.01506 11.8075C2.75081 11.8075 2.49273 11.7828 2.24258 11.7352C2.76491 13.3648 4.27993 14.5521 6.07593 14.5838C4.67101 15.6849 2.90144 16.3411 0.979477 16.3411C0.648287 16.3411 0.321501 16.3217 0 16.2838C1.81626 17.4491 3.97252 18.1274 6.28909 18.1274C13.8378 18.1274 17.9644 11.8753 17.9644 6.45292C17.9644 6.27676 17.96 6.09883 17.9521 5.92267C18.7536 5.34309 19.4495 4.62169 19.9982 3.79988L20 3.79724Z" fill="#1D9BF0"/>
</svg>
