<svg width="20" height="20" viewBox="0 0 20 20" fill="none" xmlns="http://www.w3.org/2000/svg">
<g clip-path="url(#clip0_44_158)">
<path d="M15.849 9.99995C15.85 11.3764 15.3651 12.709 14.4798 13.763C13.5946 14.817 12.3658 15.5248 11.0099 15.7616C9.65395 15.9985 8.25794 15.7492 7.06779 15.0578C5.87764 14.3663 4.96969 13.277 4.50391 11.9818L1.1584 14.6581C2.19867 16.6356 3.87151 18.2075 5.90982 19.1228C7.94813 20.0382 10.2344 20.2442 12.4035 19.7079C14.5726 19.1716 16.4994 17.9241 17.8764 16.1644C19.2534 14.4047 20.001 12.2344 20 9.99995" fill="#00AC47"/>
<path d="M15.8491 9.99995C15.8483 10.9305 15.6252 11.8474 15.1983 12.6743C14.7715 13.5012 14.1532 14.2141 13.395 14.7537L16.7025 17.3997C17.7396 16.4659 18.5691 15.3247 19.1371 14.05C19.7051 12.7753 19.9991 11.3955 20 9.99995" fill="#4285F4"/>
<path d="M4.15094 9.99995C4.15239 9.32384 4.27184 8.65317 4.50392 8.01814L1.15841 5.34176C0.397723 6.77661 0 8.37592 0 9.99995C0 11.624 0.397723 13.2233 1.15841 14.6581L4.50392 11.9818C4.27184 11.3467 4.15239 10.6761 4.15094 9.99995Z" fill="#FFBA00"/>
<path d="M9.99999 4.1509C11.2376 4.15124 12.4428 4.54675 13.44 5.2798L16.5041 2.41995C15.3667 1.43924 14.0224 0.728075 12.5717 0.339518C11.121 -0.049038 9.60122 -0.104949 8.12586 0.175958C6.6505 0.456865 5.25763 1.06734 4.05119 1.96182C2.84474 2.85629 1.85588 4.01168 1.1584 5.34176L4.50391 8.01814C4.91192 6.8871 5.65834 5.90915 6.64169 5.21722C7.62504 4.5253 8.7976 4.15299 9.99999 4.1509Z" fill="#EA4435"/>
<path d="M20 9.24523V9.99995L18.3019 12.6415H10.3773V8.49052H19.2453C19.4454 8.49052 19.6374 8.57003 19.7789 8.71157C19.9205 8.85311 20 9.04507 20 9.24523Z" fill="#4285F4"/>
</g>
<defs>
<clipPath id="clip0_44_158">
<rect width="20" height="20" fill="white"/>
</clipPath>
</defs>
</svg>
