<svg width="20" height="20" viewBox="0 0 20 20" fill="none" xmlns="http://www.w3.org/2000/svg">
<path d="M13.5228 4.87682C12.6063 4.83182 11.5135 5.25932 10.6053 6.49682L10.0015 7.31432L9.397 6.49682C8.488 5.25932 7.3945 4.83182 6.478 4.87682C5.54575 4.92932 4.71625 5.46182 4.2955 6.30932C3.8815 7.14932 3.82075 8.39432 4.65475 9.92432C5.46025 11.4018 7.0975 13.1268 10.0015 14.8818C12.904 13.1268 14.5405 11.4018 15.346 9.92432C16.1793 8.39432 16.1185 7.14932 15.7038 6.30932C15.283 5.46182 14.4543 4.92932 13.5228 4.87682ZM16.663 10.6443C15.6498 12.5043 13.6623 14.4843 10.3788 16.3968L10.0015 16.6218L9.6235 16.3968C6.33925 14.4843 4.35175 12.5043 3.337 10.6443C2.317 8.76932 2.2795 6.99932 2.9515 5.64182C3.61675 4.29932 4.93675 3.45932 6.40225 3.38432C7.6405 3.31682 8.92825 3.80432 10.0008 4.89182C11.0725 3.80432 12.3603 3.31682 13.5978 3.38432C15.0633 3.45932 16.3833 4.29932 17.0485 5.64182C17.7205 6.99932 17.683 8.76932 16.663 10.6443Z" fill="#71767B"/>
</svg>
