<svg width="16" height="16" viewBox="0 0 16 16" fill="none" xmlns="http://www.w3.org/2000/svg">
<g clip-path="url(#clip0_61_226)">
<path d="M6.81465 1.60345C3.93646 1.60345 1.60345 3.93646 1.60345 6.81465C1.60345 9.69284 3.93646 12.0259 6.81465 12.0259C8.25375 12.0259 9.55574 11.4438 10.4994 10.4994C11.4438 9.55574 12.0259 8.25375 12.0259 6.81465C12.0259 3.93646 9.69284 1.60345 6.81465 1.60345ZM0 6.81465C0 3.05136 3.05136 0 6.81465 0C10.5779 0 13.6293 3.05136 13.6293 6.81465C13.6293 8.40687 13.0825 9.87323 12.167 11.0333L16 14.8664L14.8664 16L11.0333 12.167C9.87323 13.0825 8.40687 13.6293 6.81465 13.6293C3.05136 13.6293 0 10.5779 0 6.81465Z" fill="#71767B"/>
</g>
<defs>
<clipPath id="clip0_61_226">
<rect width="16" height="16" fill="white"/>
</clipPath>
</defs>
</svg>
