<svg width="18" height="18" viewBox="0 0 18 18" fill="none" xmlns="http://www.w3.org/2000/svg">
<g clip-path="url(#clip0_73_233)">
<path d="M7.71805 0H10.282L11.6605 2.0722C11.7571 2.22146 11.9415 2.29171 12.1259 2.25659L14.3473 1.73854L16.2527 3.6439L15.7434 5.87415C15.6995 6.04976 15.7785 6.23415 15.9278 6.33951L18 7.71805V10.282L15.9278 11.6605C15.7785 11.7659 15.6995 11.9502 15.7434 12.1259L16.2527 14.3561L14.3473 16.2615L12.1259 15.7434C11.9415 15.7083 11.7571 15.7785 11.6605 15.9278L10.282 18H7.71805L6.33073 15.9278C6.23415 15.7785 6.04976 15.7083 5.87415 15.7434L3.6439 16.2615L1.73854 14.3561L2.24781 12.1259C2.29171 11.9502 2.22146 11.7659 2.06341 11.6605L0 10.282V7.71805L2.06341 6.33951C2.22146 6.23415 2.29171 6.04976 2.24781 5.87415L1.73854 3.6439L3.6439 1.73854L5.87415 2.25659C6.04976 2.29171 6.23415 2.22146 6.33073 2.0722L7.71805 0ZM8.65756 1.7561L7.79707 3.04683C7.28781 3.80195 6.36585 4.17073 5.47902 3.96878L4.19707 3.67024L3.67024 4.19707L3.96 5.47902C4.17073 6.36585 3.80195 7.29659 3.03805 7.79707L1.7561 8.65756V9.34244L3.03805 10.2029C3.80195 10.7034 4.17073 11.6341 3.96 12.521L3.67024 13.8029L4.19707 14.3298L5.47902 14.0312C6.36585 13.8293 7.28781 14.1981 7.79707 14.9532L8.65756 16.2439H9.34244L10.1941 14.9532C10.7034 14.1981 11.6254 13.8293 12.521 14.0312L13.7941 14.3298L14.3298 13.8029L14.0312 12.521C13.8293 11.6341 14.1893 10.7034 14.9532 10.2029L16.2439 9.34244V8.65756L14.9532 7.79707C14.1893 7.29659 13.8293 6.36585 14.0312 5.47902L14.3298 4.19707L13.7941 3.67024L12.521 3.96878C11.6254 4.17073 10.7034 3.80195 10.1941 3.04683L9.34244 1.7561H8.65756ZM9 7.68293C8.27122 7.68293 7.68293 8.27122 7.68293 9C7.68293 9.72878 8.27122 10.3171 9 10.3171C9.72 10.3171 10.3171 9.72878 10.3171 9C10.3171 8.27122 9.72 7.68293 9 7.68293ZM5.92683 9C5.92683 7.30537 7.29659 5.92683 9 5.92683C10.6946 5.92683 12.0732 7.30537 12.0732 9C12.0732 10.6946 10.6946 12.0732 9 12.0732C7.29659 12.0732 5.92683 10.6946 5.92683 9Z" fill="#E7E9EA"/>
</g>
<defs>
<clipPath id="clip0_73_233">
<rect width="18" height="18" fill="white"/>
</clipPath>
</defs>
</svg>
