<svg width="28" height="28" viewBox="0 0 28 28" fill="none" xmlns="http://www.w3.org/2000/svg">
<path d="M12.4183 2.89583H15.5817L17.2825 5.4525C17.4017 5.63666 17.6292 5.72333 17.8567 5.68L20.5975 5.04083L22.9483 7.39166L22.32 10.1433C22.2658 10.36 22.3633 10.5875 22.5475 10.7175L25.1042 12.4183V15.5817L22.5475 17.2825C22.3633 17.4125 22.2658 17.64 22.32 17.8567L22.9483 20.6083L20.5975 22.9592L17.8567 22.32C17.6292 22.2767 17.4017 22.3633 17.2825 22.5475L15.5817 25.1042H12.4183L10.7067 22.5475C10.5875 22.3633 10.36 22.2767 10.1433 22.32L7.39167 22.9592L5.04083 20.6083L5.66917 17.8567C5.72333 17.64 5.63667 17.4125 5.44167 17.2825L2.89583 15.5817V12.4183L5.44167 10.7175C5.63667 10.5875 5.72333 10.36 5.66917 10.1433L5.04083 7.39166L7.39167 5.04083L10.1433 5.68C10.36 5.72333 10.5875 5.63666 10.7067 5.4525L12.4183 2.89583ZM13.5775 5.06249L12.5158 6.65499C11.8875 7.58666 10.75 8.04166 9.65583 7.7925L8.07417 7.42416L7.42417 8.07416L7.78167 9.65583C8.04167 10.75 7.58667 11.8983 6.64417 12.5158L5.0625 13.5775V14.4225L6.64417 15.4842C7.58667 16.1017 8.04167 17.25 7.78167 18.3442L7.42417 19.9258L8.07417 20.5758L9.65583 20.2075C10.75 19.9583 11.8875 20.4133 12.5158 21.345L13.5775 22.9375H14.4225L15.4733 21.345C16.1017 20.4133 17.2392 19.9583 18.3442 20.2075L19.915 20.5758L20.5758 19.9258L20.2075 18.3442C19.9583 17.25 20.4025 16.1017 21.345 15.4842L22.9375 14.4225V13.5775L21.345 12.5158C20.4025 11.8983 19.9583 10.75 20.2075 9.65583L20.5758 8.07416L19.915 7.42416L18.3442 7.7925C17.2392 8.04166 16.1017 7.58666 15.4733 6.65499L14.4225 5.06249H13.5775ZM14 12.375C13.1008 12.375 12.375 13.1008 12.375 14C12.375 14.8992 13.1008 15.625 14 15.625C14.8883 15.625 15.625 14.8992 15.625 14C15.625 13.1008 14.8883 12.375 14 12.375ZM10.2083 14C10.2083 11.9092 11.8983 10.2083 14 10.2083C16.0908 10.2083 17.7917 11.9092 17.7917 14C17.7917 16.0908 16.0908 17.7917 14 17.7917C11.8983 17.7917 10.2083 16.0908 10.2083 14Z" fill="#E7E9EA"/>
</svg>
