<svg width="28" height="28" viewBox="0 0 28 28" fill="none" xmlns="http://www.w3.org/2000/svg">
<g clip-path="url(#clip0_30_14)">
<path d="M28.1912 5.1975C27.1475 5.66 26.0262 5.9725 24.8475 6.11375C26.05 5.39375 26.9725 4.25125 27.4075 2.89125C26.2825 3.55875 25.0362 4.04375 23.71 4.30375C22.6475 3.17375 21.135 2.46625 19.46 2.46625C16.245 2.46625 13.6375 5.07375 13.6375 8.29125C13.6375 8.74625 13.69 9.18875 13.7875 9.61625C8.94625 9.3725 4.6575 7.05375 1.785 3.53125C1.285 4.39375 0.997496 5.39375 0.997496 6.45875C0.997496 8.47875 2.02625 10.2625 3.5875 11.3062C2.6325 11.275 1.735 11.0137 0.949996 10.5775V10.6525C0.949996 13.4737 2.95625 15.8275 5.62125 16.3625C5.13125 16.495 4.6175 16.565 4.0875 16.565C3.7125 16.565 3.34625 16.53 2.99125 16.4625C3.7325 18.775 5.8825 20.46 8.43125 20.505C6.4375 22.0675 3.92625 22.9987 1.19875 22.9987C0.728746 22.9987 0.264996 22.9712 -0.191254 22.9175C2.38625 24.5712 5.44625 25.5337 8.73375 25.5337C19.4462 25.5337 25.3025 16.6612 25.3025 8.96625C25.3025 8.71625 25.2962 8.46375 25.285 8.21375C26.4225 7.39125 27.41 6.3675 28.1887 5.20125L28.1912 5.1975Z" fill="#D6D9DB"/>
</g>
<defs>
<clipPath id="clip0_30_14">
<rect width="28" height="28" fill="white"/>
</clipPath>
</defs>
</svg>
