<svg width="24" height="24" viewBox="0 0 24 24" fill="none" xmlns="http://www.w3.org/2000/svg">
<path d="M24 4.55668C23.1174 4.94777 22.1693 5.21202 21.1726 5.33146C22.1894 4.72263 22.9694 3.75654 23.3373 2.60654C22.386 3.17097 21.3322 3.58108 20.2107 3.80094C19.3123 2.84542 18.0333 2.24716 16.6169 2.24716C13.8984 2.24716 11.6935 4.45204 11.6935 7.17274C11.6935 7.55748 11.7379 7.93165 11.8203 8.29315C7.72659 8.08703 4.10006 6.12632 1.6711 3.14772C1.2483 3.87704 1.0052 4.72263 1.0052 5.62319C1.0052 7.33128 1.8751 8.83961 3.19528 9.7222C2.38774 9.69577 1.62882 9.47486 0.965031 9.10597V9.16939C0.965031 11.555 2.6615 13.5453 4.915 13.9977C4.50066 14.1098 4.06624 14.169 3.61807 14.169C3.30098 14.169 2.99128 14.1394 2.69109 14.0823C3.31789 16.0377 5.13591 17.4625 7.29111 17.5006C5.60521 18.8218 3.48172 19.6093 1.17537 19.6093C0.777944 19.6093 0.385801 19.586 0 19.5406C2.17951 20.939 4.76702 21.7529 7.5469 21.7529C16.6053 21.7529 21.5573 14.2503 21.5573 7.74351C21.5573 7.53211 21.552 7.3186 21.5425 7.1072C22.5044 6.4117 23.3394 5.54603 23.9979 4.55986L24 4.55668Z" fill="#D6D9DB"/>
</svg>
