<svg width="20" height="20" viewBox="0 0 20 20" fill="none" xmlns="http://www.w3.org/2000/svg">
<g clip-path="url(#clip0_30_14)">
<path d="M19.396 10C19.378 9.354 19.181 8.725 18.826 8.184C18.472 7.644 17.974 7.212 17.388 6.938C17.611 6.331 17.658 5.674 17.528 5.041C17.397 4.407 17.091 3.823 16.646 3.354C16.176 2.909 15.593 2.604 14.959 2.472C14.326 2.342 13.669 2.389 13.062 2.612C12.789 2.025 12.358 1.526 11.817 1.172C11.276 0.818004 10.647 0.620004 10 0.604004C9.354 0.621004 8.727 0.817004 8.187 1.172C7.647 1.527 7.218 2.026 6.947 2.612C6.339 2.389 5.68 2.34 5.045 2.472C4.41 2.602 3.825 2.908 3.355 3.354C2.91 3.824 2.606 4.409 2.477 5.042C2.347 5.675 2.397 6.332 2.621 6.938C2.034 7.212 1.534 7.643 1.178 8.183C0.822 8.723 0.623 9.353 0.604 10C0.624 10.647 0.822 11.276 1.178 11.817C1.534 12.357 2.034 12.789 2.621 13.062C2.397 13.668 2.347 14.325 2.477 14.958C2.607 15.592 2.91 16.176 3.354 16.646C3.824 17.089 4.408 17.393 5.041 17.524C5.674 17.656 6.331 17.608 6.938 17.388C7.212 17.974 7.643 18.472 8.184 18.827C8.724 19.181 9.354 19.378 10 19.396C10.647 19.38 11.276 19.183 11.817 18.829C12.358 18.475 12.789 17.975 13.062 17.389C13.666 17.628 14.328 17.685 14.965 17.553C15.601 17.421 16.185 17.106 16.645 16.646C17.105 16.186 17.421 15.602 17.553 14.965C17.685 14.328 17.628 13.666 17.388 13.062C17.974 12.788 18.472 12.357 18.827 11.816C19.181 11.276 19.378 10.646 19.396 10ZM8.662 13.85L5.233 10.422L6.526 9.12L8.598 11.192L12.998 6.398L14.345 7.644L8.662 13.85Z" fill="#1D9BF0"/>
</g>
<defs>
<clipPath id="clip0_30_14">
<rect width="20" height="20" fill="white"/>
</clipPath>
</defs>
</svg>
